<svg width="24" height="24" viewBox="0 0 24 24" fill="none" xmlns="http://www.w3.org/2000/svg">
<path fill-rule="evenodd" clip-rule="evenodd" d="M5.41832 2.32488C5.71048 2.19898 6.01314 2.42747 6.09093 2.73594C6.41905 4.03699 7.59706 5 9 5H15C16.4029 5 17.5809 4.03699 17.9091 2.73594C17.9869 2.42747 18.2895 2.19898 18.5817 2.32488C20.0042 2.93791 21 4.35266 21 6V19C21 21.2091 19.2091 23 17 23H7C4.79086 23 3 21.2091 3 19V6C3 4.35266 3.99582 2.93791 5.41832 2.32488ZM9 10C9 10.5523 8.55228 11 8 11C7.44772 11 7 10.5523 7 10C7 9.44772 7.44772 9 8 9C8.55228 9 9 9.44772 9 10ZM11 10C11 9.44772 11.4477 9 12 9H16C16.5523 9 17 9.44772 17 10C17 10.5523 16.5523 11 16 11H12C11.4477 11 11 10.5523 11 10ZM12 13C11.4477 13 11 13.4477 11 14C11 14.5523 11.4477 15 12 15H16C16.5523 15 17 14.5523 17 14C17 13.4477 16.5523 13 16 13H12ZM12 17C11.4477 17 11 17.4477 11 18C11 18.5523 11.4477 19 12 19H14C14.5523 19 15 18.5523 15 18C15 17.4477 14.5523 17 14 17H12ZM9 14C9 14.5523 8.55228 15 8 15C7.44772 15 7 14.5523 7 14C7 13.4477 7.44772 13 8 13C8.55228 13 9 13.4477 9 14ZM9 18C9 18.5523 8.55228 19 8 19C7.44772 19 7 18.5523 7 18C7 17.4477 7.44772 17 8 17C8.55228 17 9 17.4477 9 18Z" fill="#12131A"/>
<path d="M9 1H15C15.5523 1 16 1.44772 16 2C16 2.55228 15.5523 3 15 3H9C8.44772 3 8 2.55228 8 2C8 1.44772 8.44772 1 9 1Z" fill="#12131A"/>
</svg>
