<svg width="24" height="24" viewBox="0 0 24 24" fill="none" xmlns="http://www.w3.org/2000/svg">
<path d="M7 22C8.10457 22 9 21.1046 9 20C9 18.8954 8.10457 18 7 18C5.89543 18 5 18.8954 5 20C5 21.1046 5.89543 22 7 22Z" fill="#12131A"/>
<path d="M17 22C18.1046 22 19 21.1046 19 20C19 18.8954 18.1046 18 17 18C15.8954 18 15 18.8954 15 20C15 21.1046 15.8954 22 17 22Z" fill="#12131A"/>
<path d="M3.44719 2.10555C2.95321 1.85856 2.35254 2.05878 2.10555 2.55276C1.85856 3.04674 2.05878 3.64741 2.55276 3.8944L3.55627 4.39616C3.86602 4.55103 4.07359 4.85515 4.10495 5.20005L4.83872 13.2716C4.9792 14.8168 6.27479 16 7.8264 16H16.4914C17.8308 16 19.008 15.112 19.3759 13.8241L20.5973 9.54942C20.9623 8.27179 20.003 6.99997 18.6742 6.99997H6.27683L6.09674 5.01898C6.00267 3.98429 5.37996 3.07193 4.4507 2.6073L3.44719 2.10555Z" fill="#12131A"/>
</svg>
