<svg width="24" height="24" viewBox="0 0 24 24" fill="none" xmlns="http://www.w3.org/2000/svg">
<path fill-rule="evenodd" clip-rule="evenodd" d="M13.2426 2C12.1817 2 11.1643 2.42143 10.4142 3.17157L5.35356 8.23217C5.15829 8.42744 5.15829 8.74402 5.35356 8.93928L15.0607 18.6464C15.2559 18.8416 15.5725 18.8416 15.7678 18.6464L20.8284 13.5858C21.5785 12.8356 21.9999 11.8182 21.9999 10.7574V5C21.9999 3.34315 20.6568 2 18.9999 2H13.2426ZM17 9C17 10.1046 16.1046 11 15 11C13.8954 11 13 10.1046 13 9C13 7.89543 13.8954 7 15 7C16.1046 7 17 7.89543 17 9Z" fill="#12131A"/>
<path d="M13.6464 20.7677C13.8417 20.5724 13.8417 20.2559 13.6464 20.0606L3.93934 10.3535C3.74408 10.1582 3.4275 10.1582 3.23224 10.3535L2.70705 10.8787C1.53548 12.0503 1.53547 13.9497 2.70705 15.1213L8.87862 21.2929C10.0502 22.4645 11.9497 22.4645 13.1213 21.2929L13.6464 20.7677Z" fill="#12131A"/>
</svg>
