<svg width="24" height="24" viewBox="0 0 24 24" fill="none" xmlns="http://www.w3.org/2000/svg">
<path d="M13 16C13 15.4477 12.5523 15 12 15C11.4477 15 11 15.4477 11 16V19C11 20.6569 12.3431 22 14 22C15.6569 22 17 20.6569 17 19C17 18.4477 16.5523 18 16 18C15.4477 18 15 18.4477 15 19C15 19.5523 14.5523 20 14 20C13.4477 20 13 19.5523 13 19V16Z" fill="#12131A"/>
<path d="M19.9736 13.3246C20.9705 13.6568 21.9988 12.9068 21.7819 11.8786C20.7688 7.07571 16.3844 4 11.9999 4C7.6155 4 3.23108 7.07571 2.21796 11.8786C2.00108 12.9068 3.02939 13.6568 4.02626 13.3246V13.3246C4.65828 13.1139 5.34158 13.1139 5.9736 13.3246L7.17116 13.7237C7.71243 13.9042 8.29393 13.9265 8.84745 13.7881L11.2723 13.1819C11.75 13.0625 12.2498 13.0625 12.7275 13.1819L15.1524 13.7881C15.7059 13.9265 16.2874 13.9042 16.8287 13.7237L18.0263 13.3246C18.6583 13.1139 19.3416 13.1139 19.9736 13.3246V13.3246Z" fill="#12131A"/>
<path d="M11 3C11 2.44772 11.4477 2 12 2V2C12.5523 2 13 2.44772 13 3V4C13 4.55228 12.5523 5 12 5V5C11.4477 5 11 4.55228 11 4V3Z" fill="#12131A"/>
</svg>
