<svg width="24" height="24" viewBox="0 0 24 24" fill="none" xmlns="http://www.w3.org/2000/svg">
<path d="M10 19C10 20.1046 9.10457 21 8 21C6.89543 21 6 20.1046 6 19C6 17.8954 6.89543 17 8 17C9.10457 17 10 17.8954 10 19Z" fill="white"/>
<path d="M21.6709 4.25847C22.0805 4.62901 22.1121 5.26138 21.7415 5.67092L19.3739 8.28784C19.1951 8.48542 19.2027 8.78845 19.3911 8.97685L20.7071 10.2929C21.0976 10.6834 21.0976 11.3166 20.7071 11.7071C20.3166 12.0976 19.6834 12.0976 19.2929 11.7071L18.0829 10.4971C17.8807 10.2949 17.5504 10.3032 17.3586 10.5152L12.2415 16.1709C11.871 16.5805 11.2386 16.6121 10.8291 16.2415C10.4196 15.871 10.3879 15.2386 10.7585 14.8291L20.2585 4.32909C20.629 3.91956 21.2614 3.88794 21.6709 4.25847Z" fill="white"/>
<path d="M2.29289 13.2929C2.68342 12.9024 3.31658 12.9024 3.70711 13.2929L5.20711 14.7929C5.59763 15.1834 5.59763 15.8166 5.20711 16.2071C4.81658 16.5976 4.18342 16.5976 3.79289 16.2071L2.29289 14.7071C1.90237 14.3166 1.90237 13.6834 2.29289 13.2929Z" fill="white"/>
<path d="M3.41416 10.4142L6.58573 13.5858C7.36678 14.3668 8.6331 14.3668 9.41415 13.5858L14.5857 8.41422C15.3668 7.63317 15.3668 6.36684 14.5857 5.58579L11.4142 2.41422C10.6331 1.63317 9.36678 1.63317 8.58573 2.41422L3.41416 7.58579C2.63311 8.36684 2.63311 9.63317 3.41416 10.4142Z" fill="white"/>
</svg>
